<svg width="22" height="22" viewBox="0 0 22 22" fill="none" xmlns="http://www.w3.org/2000/svg">
<path d="M19.25 17.875V22C19.1497 21.9427 19.0065 21.8568 18.8203 21.7422C18.6341 21.6276 18.2474 21.3125 17.6602 20.7969C17.0729 20.2812 16.4857 19.6797 15.8984 18.9922C15.1966 19.1641 14.4805 19.25 13.75 19.25C12.7044 19.25 11.7412 19.1426 10.8604 18.9277C9.97949 18.7129 9.25977 18.4479 8.70117 18.1328C8.14258 17.8177 7.66634 17.4668 7.27246 17.0801C6.87858 16.6934 6.59928 16.3353 6.43457 16.0059C6.26986 15.6764 6.1875 15.3828 6.1875 15.125H8.25C10.0977 15.125 11.7412 14.8027 13.1807 14.1582C14.6201 13.5137 15.7624 12.5612 16.6074 11.3008C17.4525 10.0404 17.875 8.5651 17.875 6.875C20.625 8.26432 22 10.2122 22 12.7188C22 14.7669 21.0833 16.4857 19.25 17.875ZM8.25 13.75C7.51953 13.75 6.80339 13.6641 6.10156 13.4922C5.51432 14.1797 4.94141 14.7741 4.38281 15.2754C3.82422 15.7767 3.40885 16.1061 3.13672 16.2637L2.75 16.5V12.375C0.916667 10.9857 0 9.26693 0 7.21875C0 5.91536 0.368815 4.70866 1.10645 3.59863C1.84408 2.48861 2.84668 1.61133 4.11426 0.966797C5.38184 0.322266 6.764 0 8.26074 0C9.75749 0 11.1396 0.322266 12.4072 0.966797C13.6748 1.61133 14.6738 2.48861 15.4043 3.59863C16.1348 4.70866 16.5 5.91536 16.5 7.21875C16.5 8.52214 16.1276 9.67513 15.3828 10.6777C14.638 11.6803 13.6426 12.443 12.3965 12.9658C11.1504 13.4886 9.76823 13.75 8.25 13.75ZM8.25 1.375C7.00391 1.375 5.85449 1.61849 4.80176 2.10547C3.74902 2.59245 2.91471 3.25846 2.29883 4.10352C1.68294 4.94857 1.375 5.86882 1.375 6.86426C1.375 7.8597 1.68294 8.77995 2.29883 9.625C2.91471 10.4701 3.74902 11.1396 4.80176 11.6338C5.85449 12.1279 7.00391 12.375 8.25 12.375C9.49609 12.375 10.6455 12.1279 11.6982 11.6338C12.751 11.1396 13.5853 10.4701 14.2012 9.625C14.8171 8.77995 15.125 7.8597 15.125 6.86426C15.125 5.86882 14.8171 4.94857 14.2012 4.10352C13.5853 3.25846 12.751 2.59245 11.6982 2.10547C10.6455 1.61849 9.49609 1.375 8.25 1.375Z" fill="white"/>
</svg>
