<svg id="Layer_1" data-name="Layer 1" xmlns="http://www.w3.org/2000/svg" viewBox="0 0 426.76 168.79"><defs><style>.cls-1{fill:#fff;}.cls-2{fill:#e72128;}</style></defs><path d="M331.07,126.49h94a0,0,0,0,1,0,0v21.15a21.15,21.15,0,0,1-21.15,21.15H331.07a21.15,21.15,0,0,1-21.15-21.15v0a21.15,21.15,0,0,1,21.15-21.15Z"/><path class="cls-1" d="M335.09,157.09a1.65,1.65,0,0,1-2.31,0,1.64,1.64,0,0,1,0-2.32,1.63,1.63,0,0,1,2.31,0,1.64,1.64,0,0,1,0,2.32Z"/><path class="cls-1" d="M348,157.62a10.55,10.55,0,0,1-7.82-3.12,11,11,0,0,1,0-15.28,11.15,11.15,0,0,1,13.11-1.74,9.73,9.73,0,0,1,3.72,3.73l-1.85,1.07a7.31,7.31,0,0,0-2.91-3,8.32,8.32,0,0,0-4.25-1.13,8.55,8.55,0,0,0-8.83,8.74A8.53,8.53,0,0,0,348,155.6a8.22,8.22,0,0,0,4.25-1.13,7.31,7.31,0,0,0,2.91-3l1.85,1a9.55,9.55,0,0,1-3.71,3.75A10.41,10.41,0,0,1,348,157.62Z"/><path class="cls-1" d="M377.61,154.49a10.88,10.88,0,1,1,3.12-7.63A10.37,10.37,0,0,1,377.61,154.49Zm-13.83-1.43a8.8,8.8,0,0,0,12.37,0,8.94,8.94,0,0,0,0-12.4,8.8,8.8,0,0,0-12.37,0,9,9,0,0,0,0,12.4Z"/><path class="cls-1" d="M403.33,136.46v20.81h-2.08V139.61L394,151.8h-.3l-7.28-12.19v17.66H384.3V136.46h2.55l7,11.64,7-11.64Z"/><path class="cls-2" d="M53.26,41.11V58.66H35.71v53.46H17.55V58.66H0V41.11Z"/><path class="cls-2" d="M107.48,106.84q-7.86,6.8-20.24,6.8T67,106.84q-7.86-6.8-7.86-18V41.11H77.3v46Q77.3,96,87.24,96t9.94-8.93V41.11h18.16V88.79Q115.34,100,107.48,106.84Z"/><path class="cls-2" d="M162.81,112.12,150.44,89.19H144v22.93H125.79v-71h28.4a25.46,25.46,0,0,1,18.21,7,23.18,23.18,0,0,1,7.35,17.6,22.09,22.09,0,0,1-3.24,11.71,23.86,23.86,0,0,1-8.83,8.47l14.61,26.28ZM144,57.85V73.77h10a6.92,6.92,0,0,0,5.48-2.13,8,8,0,0,0,2.13-5.78,8,8,0,0,0-2.13-5.78A7.24,7.24,0,0,0,154,57.85Z"/><path class="cls-2" d="M247.52,112.12H227.23L206.84,80.29v31.83H188.68v-71h18.16V71l19.37-29.86H246.5L224,75.6Z"/><path class="cls-2" d="M270.85,95.08h27.49v17H252.69v-71h45.14V58.05h-27v9.84H295.3V84.63H270.85Z"/><path class="cls-2" d="M367.42,41.11,343.48,84.83v27.29H325.32V85L301.38,41.11h20.39l12.58,26.27L347,41.11Z"/><path class="cls-2" d="M408.07,112.12l-3.4-10.25H380.5l-3.06,10.25H357.78l22.63-71h22.86l23.49,71Zm-22.9-25.87h14.31l-7.21-24.14Z"/><path d="M31,.59V32.11H26.83V7.48L16.52,24.63H16L5.66,7.45V32.11H1.48V.59H6.2L16.29,17.32,26.29.59Z"/><path d="M58.49,32.11,55.92,25H41.74l-2.57,7.07H34.71L46.46.59h4.73L63,32.11Zm-15.32-11H54.49L48.83,5.56Z"/><path d="M70.87,28.15h13.6v4H66.68V.59h4.19Z"/><path d="M92.85,28.15h13.6v4H88.66V.59h4.19Z"/><path d="M148.13,27.92a16.45,16.45,0,0,1-23.17,0,15.8,15.8,0,0,1-4.73-11.57A15.79,15.79,0,0,1,125,4.75a16.5,16.5,0,0,1,23.17,0,15.81,15.81,0,0,1,4.75,11.6A15.82,15.82,0,0,1,148.13,27.92Zm-20.27-2.86a12.39,12.39,0,0,0,17.34,0,11.89,11.89,0,0,0,3.49-8.71,12,12,0,0,0-3.49-8.76,12.39,12.39,0,0,0-17.34,0,12,12,0,0,0-3.49,8.76A11.89,11.89,0,0,0,127.86,25.06Z"/><path d="M176.07,4.55h-14V14.77h13.37v4H162.11V32.11h-4.19V.59h18.15Z"/></svg>