<svg width="48" height="48" viewBox="0 0 48 48" fill="none" xmlns="http://www.w3.org/2000/svg">
<circle cx="24" cy="24" r="24" fill="#0084FF"/>
<g filter="url(#filter0_d)">
<path d="M15.7879 32.3701C12.8668 30.1626 11 26.8018 11 23.0374C11 16.3887 16.8201 11 24 11C31.1799 11 37 16.3887 37 23.0374C37 29.6849 31.1799 35.0749 24 35.0749C22.6987 35.0761 21.4035 34.8956 20.152 34.5386L15.7879 37V32.3701V32.3701ZM22.6129 19.7404L15.6007 27.1076L21.9811 23.6323L25.3156 27.1076L32.2862 19.7404L25.9773 23.1533L22.6116 19.7404H22.6129Z" fill="white"/>
</g>
<defs>
<filter id="filter0_d" x="9" y="10" width="30" height="30" filterUnits="userSpaceOnUse" color-interpolation-filters="sRGB">
<feFlood flood-opacity="0" result="BackgroundImageFix"/>
<feColorMatrix in="SourceAlpha" type="matrix" values="0 0 0 0 0 0 0 0 0 0 0 0 0 0 0 0 0 0 127 0" result="hardAlpha"/>
<feOffset dy="1"/>
<feGaussianBlur stdDeviation="1"/>
<feComposite in2="hardAlpha" operator="out"/>
<feColorMatrix type="matrix" values="0 0 0 0 0 0 0 0 0 0 0 0 0 0 0 0 0 0 0.24 0"/>
<feBlend mode="normal" in2="BackgroundImageFix" result="effect1_dropShadow"/>
<feBlend mode="normal" in="SourceGraphic" in2="effect1_dropShadow" result="shape"/>
</filter>
</defs>
</svg>
