<svg width="148" height="158" viewBox="0 0 148 158" fill="none" xmlns="http://www.w3.org/2000/svg">
<path fill-rule="evenodd" clip-rule="evenodd" d="M25.8042 25.4273C36.781 14.4505 51.6634 8.27576 67.1868 8.25745C82.7103 8.27576 97.5927 14.4505 108.569 25.4273C119.546 36.404 125.721 51.2864 125.739 66.8099C125.757 79.4898 121.616 91.8257 113.949 101.925L113.944 101.941C113.944 101.941 112.341 104.039 112.107 104.321L67.1868 157.3L22.2878 104.347C22.027 104.044 20.4301 101.941 20.4301 101.941C12.7596 91.8372 8.61582 79.4957 8.63441 66.8099C8.65273 51.2864 14.8275 36.404 25.8042 25.4273ZM67.3418 105.828C89.7184 105.828 107.858 87.6878 107.858 65.3112C107.858 42.9346 89.7184 24.7948 67.3418 24.7948C44.9652 24.7948 26.8254 42.9346 26.8254 65.3112C26.8254 87.6878 44.9652 105.828 67.3418 105.828Z" fill="black"/>
<path d="M93.3828 66.4151H88.2823V84.6049C88.2823 85.954 87.6905 87.6365 85.2317 87.6365H73.0296V69.4467H60.8274V87.6365H48.6253C46.1666 87.6365 45.5748 85.954 45.5748 84.6049V66.4151H40.4743C38.65 66.4151 39.0405 65.4328 40.2912 64.1474L64.7687 39.7973C65.3636 39.1849 66.1445 38.8818 66.9285 38.8514C67.7125 38.8818 68.4934 39.1819 69.0883 39.7973L93.5627 64.1444C94.8165 65.4328 95.207 66.4151 93.3828 66.4151V66.4151Z" fill="black"/>
<path d="M143 143.863L4.5 4.94995" stroke="#E5262A" stroke-width="9" stroke-linecap="round"/>
</svg>
