<svg width="48" height="48" viewBox="0 0 48 48" fill="none" xmlns="http://www.w3.org/2000/svg">
<circle cx="24" cy="24" r="24" fill="#4DC247"/>
<g filter="url(#filter0_d)">
<path fill-rule="evenodd" clip-rule="evenodd" d="M33.3574 14.6336C32.2043 13.4783 30.8323 12.5624 29.3209 11.9386C27.8095 11.3149 26.1888 10.9959 24.5527 11C17.6919 11 12.1068 16.5573 12.104 23.3882C12.104 25.5714 12.6766 27.7021 13.7651 29.5817L12 36L18.5987 34.2764C20.424 35.2653 22.4689 35.7838 24.5471 35.7847H24.5527C31.4121 35.7847 36.9972 30.2275 37 23.3965C37.0047 21.7688 36.6852 20.1563 36.06 18.6522C35.4347 17.1481 34.5162 15.7822 33.3574 14.6336ZM24.5527 33.694H24.5485C22.6954 33.6942 20.8763 33.198 19.2823 32.2575L18.9051 32.0339L14.9895 33.0565L16.0335 29.2574L15.7881 28.8682C14.7521 27.2266 14.2036 25.3268 14.206 23.3882C14.2088 17.7109 18.8497 13.0921 24.5568 13.0921C25.916 13.0891 27.2623 13.3544 28.5178 13.8727C29.7733 14.391 30.913 15.1519 31.871 16.1115C32.8342 17.0665 33.5976 18.2021 34.1171 19.4525C34.6366 20.7029 34.902 22.0434 34.8979 23.3965C34.8951 29.0738 30.2543 33.694 24.5527 33.694ZM30.2279 25.9812C29.9159 25.8253 28.3879 25.0774 28.1023 24.9739C27.818 24.8704 27.6114 24.8193 27.4035 25.1284C27.1955 25.4375 26.5992 26.1344 26.4176 26.3414C26.236 26.5484 26.0543 26.5733 25.7437 26.4187C25.4331 26.2641 24.4306 25.9371 23.2424 24.8828C22.3175 24.0617 21.6935 23.0488 21.5119 22.7383C21.3303 22.4278 21.4925 22.2608 21.6492 22.1062C21.7892 21.9682 21.9598 21.7447 22.1151 21.5639C22.2704 21.3831 22.3217 21.2548 22.4257 21.0478C22.5297 20.8408 22.4783 20.66 22.3993 20.5054C22.3217 20.3495 21.6991 18.826 21.4398 18.2064C21.1888 17.6061 20.9323 17.6861 20.741 17.6778C20.5428 17.6698 20.3445 17.6661 20.1461 17.6668C19.9884 17.6708 19.8332 17.7072 19.6903 17.7737C19.5474 17.8402 19.4198 17.9353 19.3156 18.0532C19.0299 18.3637 18.2271 19.1116 18.2271 20.6352C18.2271 22.1587 19.3419 23.6311 19.4972 23.8381C19.6525 24.0451 21.6908 27.1708 24.8106 28.5122C25.5538 28.8309 26.1334 29.0214 26.584 29.1649C27.3286 29.4009 28.0066 29.3664 28.5432 29.2877C29.1408 29.1994 30.3832 28.5398 30.6425 27.8166C30.9018 27.0935 30.9018 26.4739 30.8241 26.3442C30.7465 26.2145 30.5371 26.1358 30.2279 25.9812Z" fill="white"/>
</g>
<defs>
<filter id="filter0_d" x="9" y="9" width="31" height="31" filterUnits="userSpaceOnUse" color-interpolation-filters="sRGB">
<feFlood flood-opacity="0" result="BackgroundImageFix"/>
<feColorMatrix in="SourceAlpha" type="matrix" values="0 0 0 0 0 0 0 0 0 0 0 0 0 0 0 0 0 0 127 0" result="hardAlpha"/>
<feOffset dy="1"/>
<feGaussianBlur stdDeviation="1.5"/>
<feComposite in2="hardAlpha" operator="out"/>
<feColorMatrix type="matrix" values="0 0 0 0 0 0 0 0 0 0 0 0 0 0 0 0 0 0 0.07 0"/>
<feBlend mode="normal" in2="BackgroundImageFix" result="effect1_dropShadow"/>
<feBlend mode="normal" in="SourceGraphic" in2="effect1_dropShadow" result="shape"/>
</filter>
</defs>
</svg>
