<svg width="225" height="89" viewBox="0 0 225 89" fill="none" xmlns="http://www.w3.org/2000/svg">
<g clip-path="url(#clip0_2:25)">
<path d="M174.55 66.696H224.109V77.848C224.109 79.3125 223.821 80.7626 223.26 82.1157C222.7 83.4687 221.878 84.6981 220.843 85.7337C219.808 86.7692 218.578 87.5907 217.225 88.1511C215.872 88.7116 214.422 89 212.958 89H174.55C173.085 89 171.635 88.7116 170.282 88.1511C168.929 87.5907 167.7 86.7692 166.665 85.7337C165.629 84.6981 164.808 83.4687 164.247 82.1157C163.687 80.7626 163.399 79.3125 163.399 77.848C163.399 74.8903 164.573 72.0537 166.665 69.9623C168.756 67.8709 171.592 66.696 174.55 66.696Z" fill="black"/>
<path d="M176.669 82.8308C176.506 82.9902 176.288 83.0795 176.06 83.0795C175.832 83.0795 175.614 82.9902 175.451 82.8308C175.371 82.7505 175.307 82.6551 175.264 82.5502C175.22 82.4452 175.198 82.3328 175.198 82.2191C175.198 82.1055 175.22 81.9931 175.264 81.8881C175.307 81.7832 175.371 81.6878 175.451 81.6075C175.531 81.5273 175.626 81.4637 175.73 81.4203C175.835 81.3768 175.947 81.3545 176.06 81.3545C176.173 81.3545 176.285 81.3768 176.39 81.4203C176.494 81.4637 176.589 81.5273 176.669 81.6075C176.749 81.6878 176.813 81.7832 176.857 81.8881C176.9 81.9931 176.922 82.1055 176.922 82.2191C176.922 82.3328 176.9 82.4452 176.857 82.5502C176.813 82.6551 176.749 82.7505 176.669 82.8308Z" fill="white"/>
<path d="M183.476 83.1102C182.712 83.1338 181.952 82.9999 181.243 82.7168C180.534 82.4338 179.89 82.0077 179.353 81.4651C178.309 80.3838 177.726 78.9396 177.726 77.4367C177.726 75.9337 178.309 74.4895 179.353 73.4082C180.256 72.5377 181.414 71.9791 182.658 71.814C183.902 71.6489 185.165 71.8861 186.265 72.4908C187.087 72.9535 187.765 73.634 188.226 74.4575L187.25 75.0217C186.904 74.3563 186.371 73.8066 185.716 73.4399C185.036 73.0439 184.262 72.8381 183.476 72.844C182.863 72.8238 182.252 72.9288 181.681 73.1526C181.111 73.3764 180.591 73.7144 180.156 74.1457C179.72 74.5771 179.377 75.0929 179.147 75.6614C178.917 76.23 178.806 76.8394 178.82 77.4525C178.807 78.0646 178.919 78.673 179.149 79.2404C179.379 79.8078 179.722 80.3223 180.158 80.7523C180.594 81.1822 181.113 81.5187 181.683 81.741C182.254 81.9633 182.864 82.0668 183.476 82.0451C184.263 82.0537 185.037 81.8477 185.716 81.4493C186.371 81.0826 186.904 80.5328 187.25 79.8674L188.226 80.3947C187.772 81.2244 187.095 81.9097 186.27 82.372C185.421 82.8634 184.456 83.1183 183.476 83.1102Z" fill="white"/>
<path d="M199.087 81.4599C198.155 82.408 196.923 83.0031 195.601 83.1435C194.28 83.2839 192.95 82.961 191.84 82.2298C190.73 81.4986 189.908 80.4046 189.516 79.1347C189.123 77.8648 189.183 76.4978 189.686 75.2674C190.189 74.037 191.104 73.0195 192.274 72.3888C193.444 71.7581 194.796 71.5533 196.101 71.8095C197.405 72.0656 198.58 72.7668 199.424 73.7931C200.269 74.8195 200.731 76.1074 200.732 77.4367C200.747 78.1841 200.609 78.9268 200.326 79.6188C200.043 80.3108 199.621 80.9374 199.087 81.4599ZM191.795 80.7059C192.664 81.564 193.835 82.0452 195.056 82.0452C196.277 82.0452 197.449 81.564 198.317 80.7059C199.162 79.8275 199.635 78.6558 199.635 77.4367C199.635 76.2176 199.162 75.0459 198.317 74.1676C197.449 73.3094 196.277 72.8282 195.056 72.8282C193.835 72.8282 192.664 73.3094 191.795 74.1676C190.957 75.0496 190.49 76.2199 190.49 77.4367C190.49 78.6535 190.957 79.8238 191.795 80.7059Z" fill="white"/>
<path d="M212.647 71.953V82.9257H211.55V73.6139L207.728 80.0415H207.57L203.732 73.6139V82.9257H202.614V71.953H203.958L207.649 78.0905L211.34 71.953H212.647Z" fill="white"/>
<path d="M28.0802 21.6766V30.9304H18.8273V59.1189H9.25286V30.9304H0V21.6766H28.0802Z" fill="white"/>
<path d="M56.6665 56.3348C53.9038 58.7252 50.3468 59.9204 45.9954 59.9204C41.644 59.9204 38.087 58.7252 35.3243 56.3348C32.5616 53.9445 31.1803 50.7808 31.1803 46.8438V21.6766H40.7548V45.9316C40.7548 49.0566 42.5016 50.6191 45.9954 50.6191C49.4892 50.6191 51.2361 49.0496 51.2361 45.9105V21.6766H60.8105V46.8174C60.8105 50.7579 59.4292 53.9304 56.6665 56.3348Z" fill="white"/>
<path d="M85.8381 59.1189L79.3162 47.0283H75.9209V59.1189H66.3201V21.6819H81.2934C83.0577 21.6356 84.8139 21.9378 86.4613 22.5712C88.1087 23.2045 89.6151 24.1566 90.8942 25.3728C92.1613 26.5563 93.1622 27.9958 93.8304 29.5958C94.4985 31.1959 94.8186 32.9198 94.7693 34.653C94.7882 36.8304 94.1964 38.9695 93.0611 40.8275C91.9238 42.6956 90.3192 44.2349 88.4057 45.2936L96.1085 59.1505L85.8381 59.1189ZM75.9209 30.5033V38.8976H81.1932C81.7277 38.9341 82.2636 38.8523 82.763 38.6582C83.2623 38.4641 83.7128 38.1624 84.0824 37.7745C84.4617 37.3659 84.7562 36.8862 84.949 36.3631C85.1417 35.84 85.2289 35.2838 85.2054 34.7268C85.2289 34.1698 85.1417 33.6137 84.949 33.0905C84.7562 32.5674 84.4617 32.0877 84.0824 31.6791C83.7107 31.2907 83.2613 30.9852 82.7634 30.7826C82.2655 30.58 81.7304 30.4848 81.1932 30.5033H75.9209Z" fill="white"/>
<path d="M130.5 59.1189H119.802L109.052 42.3355V59.1189H99.4774V21.6819H109.052V37.4371L119.264 21.6924H129.962L118.099 39.8626L130.5 59.1189Z" fill="white"/>
<path d="M142.8 50.134H157.293V59.0978H133.225V21.6608H157.024V30.6088H142.789V35.7972H155.691V44.6239H142.8V50.134Z" fill="white"/>
<path d="M193.714 21.6766L181.092 44.7294V59.1189H171.518V44.819L158.896 21.6766H169.646L176.279 35.5283L182.948 21.6766H193.714Z" fill="white"/>
<path d="M215.146 59.1189L213.354 53.7143H200.61L198.997 59.1189H188.632L200.563 21.6819H212.615L225 59.1189H215.146ZM203.073 45.4781H210.617L206.816 32.7495L203.073 45.4781Z" fill="white"/>
<path d="M16.3441 0.311096V16.931H14.1455V3.94407L8.70982 12.987H8.43566L2.98412 3.92825V16.931H0.780304V0.311096H3.26882L8.58856 9.13253L13.8608 0.311096H16.3441Z" fill="black"/>
<path d="M30.8376 16.931L29.4826 13.1821H22.0065L20.6515 16.9099H18.3001L24.495 0.311096H26.9888L33.2154 16.931H30.8376ZM22.7605 11.1309H28.7287L25.7446 2.93169L22.7605 11.1309Z" fill="black"/>
<path d="M37.3647 14.843H44.535V16.9521H35.1556V0.311096H37.3647V14.843Z" fill="black"/>
<path d="M48.9532 14.843H56.1235V16.9521H46.7441V0.311096H48.9532V14.843Z" fill="black"/>
<path d="M78.0984 14.7217C76.4739 16.3333 74.2785 17.2376 71.9904 17.2376C69.7023 17.2376 67.5069 16.3333 65.8825 14.7217C65.0738 13.9279 64.4355 12.9775 64.0067 11.9285C63.5779 10.8795 63.3676 9.75412 63.3887 8.62107C63.3679 7.48382 63.5803 6.35437 64.0128 5.30239C64.4454 4.25042 65.0888 3.29824 65.9036 2.5046C67.5313 0.899372 69.7255 -0.000549316 72.0115 -0.000549316C74.2975 -0.000549316 76.4917 0.899372 78.1194 2.5046C78.9317 3.29952 79.5729 4.25217 80.0036 5.30401C80.4343 6.35586 80.6453 7.48467 80.6238 8.62107C80.6401 9.75631 80.4246 10.8829 79.9903 11.9319C79.5561 12.9809 78.9123 13.9303 78.0984 14.7217ZM67.4114 13.2137C68.6324 14.4098 70.2734 15.0797 71.9825 15.0797C73.6916 15.0797 75.3326 14.4098 76.5536 13.2137C77.1557 12.6131 77.6294 11.8961 77.9457 11.1066C78.2621 10.317 78.4144 9.47139 78.3936 8.62107C78.4147 7.7668 78.2625 6.9171 77.9462 6.12325C77.63 5.32939 77.1562 4.60783 76.5536 4.00208C75.3326 2.806 73.6916 2.13612 71.9825 2.13612C70.2734 2.13612 68.6324 2.806 67.4114 4.00208C66.8087 4.60783 66.335 5.32939 66.0188 6.12325C65.7025 6.9171 65.5503 7.7668 65.5714 8.62107C65.5506 9.47139 65.7029 10.317 66.0193 11.1066C66.3356 11.8961 66.8093 12.6131 67.4114 13.2137Z" fill="black"/>
<path d="M92.8291 2.39913H85.4479V7.78796H92.497V9.89709H85.469V16.931H83.2599V0.311096H92.8291V2.39913Z" fill="black"/>
</g>
<defs>
<clipPath id="clip0_2:25">
<rect width="225" height="89" fill="white"/>
</clipPath>
</defs>
</svg>
